<?xml version="1.0" encoding="UTF-8"?>
<svg id="Layer_1" data-name="Layer 1" xmlns="http://www.w3.org/2000/svg" viewBox="0 0 750 750">
  <defs>
    <style>
      .cls-1 {
        fill: #fff312;
      }
    </style>
  </defs>
  <rect class="cls-1" y="0" width="750" height="750" rx="154.9" ry="154.9"/>
  <path d="M313.07,279.84l-100.36,190.31h-91.43l78.37-148.6c12.15-23.05,42.46-41.72,67.71-41.72h45.72ZM537.29,327.42c0-26.29,20.47-47.58,45.72-47.58s45.72,21.29,45.72,47.58-20.47,47.58-45.72,47.58-45.72-21.29-45.72-47.58ZM330.22,279.84h91.43l-100.36,190.31h-91.43l100.36-190.31ZM438.2,279.84h91.43l-78.35,148.6c-12.15,23.05-42.48,41.72-67.73,41.72h-45.72l100.36-190.31Z"/>
</svg>